<svg xmlns="http://www.w3.org/2000/svg" width="100" height="15" fill="none" viewBox="0 0 100 15">
    <path fill="#000" d="M99.857.178h-2.72v2.81c0 1.417-.72 2.113-2.186 2.113h-3.76c-1.44 0-2.16-.696-2.16-2.114l-.027-2.81H86.31v3.145c0 2.913 1.494 4.357 4.507 4.357h.899v5.6h2.72v-5.6h.888c3.013 0 4.507-1.444 4.507-4.357l.026-2.371V.178z"/>
    <g clip-path="url(#clip0)">
        <path fill="#000" fill-rule="evenodd" d="M13.506 13.28v-2.625H5.148c-1.407 0-2.11-.702-2.11-2.108V4.882c0-1.4.7-2.1 2.102-2.1h8.366V.159H4.782C1.874.158.42 1.616.42 4.532v4.374c0 2.916 1.454 4.374 4.362 4.374h8.724zm7.406.009l4.362-.01c2.908-.005 4.362-1.463 4.362-4.373V4.532c0-2.916-1.454-4.374-4.362-4.374h-4.362c-2.908 0-4.362 1.458-4.362 4.374v4.374c0 2.916 1.454 4.374 4.362 4.374v.009zm.436-2.634h3.49c1.453 0 2.18-.729 2.18-2.187V4.97c0-1.458-.727-2.187-2.18-2.187h-3.926c-1.163 0-1.745.73-1.745 2.187v3.5c0 1.457.727 2.186 2.18 2.186zm24.417 2.625V6.282h-2.617v4.373h-5.74c-1.408 0-2.111-.702-2.111-2.108V4.882c0-1.4.7-2.1 2.102-2.1h8.366V.159h-8.724c-2.907 0-4.361 1.458-4.361 4.374v4.374c0 2.916 1.453 4.374 4.361 4.374h8.724zm5.661-9.142v9.142H48.81V.158h2.67L59.278 9.3V.158h2.617V13.28h-2.66l-7.809-9.142zm16.13 9.142V.158H64.94V13.28h2.617zm16.13-6.998v6.998h-8.724c-2.908 0-4.362-1.458-4.362-4.374V4.532c0-2.916 1.454-4.374 4.362-4.374h8.724v2.625H75.32c-1.402 0-2.103.7-2.103 2.099v3.665c0 1.406.704 2.108 2.112 2.108h5.74V6.282h2.617z" clip-rule="evenodd"/>
    </g>
    <defs>
        <clipPath id="clip0">
            <path fill="#fff" d="M0 0H84V14H0z" transform="translate(.42 .158)"/>
        </clipPath>
    </defs>
</svg>
