<svg xmlns="http://www.w3.org/2000/svg" viewBox="0 0 140 175" x="0px" y="0px"><title>Fichier 72</title><g data-name="Calque 2"><g data-name="Calque 3"><path d="M70,6A64,64,0,1,1,6,70,64.07,64.07,0,0,1,70,6m0-6a70,70,0,1,0,70,70A70,70,0,0,0,70,0Z"/><polygon points="116.14 51.14 53.64 113.64 21.5 81.5 35.64 67.36 53.64 85.36 102 37 116.14 51.14"/><path d="M53.64,114.35,20.79,81.5,35.64,66.65l18,18L102,36.29l14.85,14.85ZM22.21,81.5l31.43,31.43,61.79-61.79L102,37.71,53.64,86.07l-18-18Z"/><line x1="116.5" y1="51.5" x2="116.14" y2="51.14"/><rect x="115.82" y="51.07" width="1" height="0.51" transform="translate(-2.22 97.28) rotate(-45)"/></g></g><text x="0" y="155" fill="#000000" font-size="5px" font-weight="bold" font-family="'Helvetica Neue', Helvetica, Arial-Unicode, Arial, Sans-serif">Created by Poups</text><text x="0" y="160" fill="#000000" font-size="5px" font-weight="bold" font-family="'Helvetica Neue', Helvetica, Arial-Unicode, Arial, Sans-serif">from the Noun Project</text></svg>